<svg width="32" height="32" viewBox="0 0 32 32" fill="none" xmlns="http://www.w3.org/2000/svg">
<rect width="32" height="32" rx="16" fill="#FECBA1"/>
<g clip-path="url(#clip0_311_18833)">
<path d="M8.75281 21V11.2H9.92881V19.936H14.8848V21H8.75281ZM19.678 21.196C18.5113 21.196 17.578 20.86 16.878 20.188C16.1873 19.5067 15.842 18.5173 15.842 17.22V14.98C15.842 13.6827 16.1873 12.698 16.878 12.026C17.578 11.3447 18.5113 11.004 19.678 11.004C20.854 11.004 21.7873 11.3447 22.478 12.026C23.178 12.698 23.528 13.6827 23.528 14.98V17.22C23.528 18.5173 23.178 19.5067 22.478 20.188C21.7873 20.86 20.854 21.196 19.678 21.196ZM19.678 20.146C20.5273 20.146 21.1853 19.894 21.652 19.39C22.1186 18.8767 22.352 18.1673 22.352 17.262V14.938C22.352 14.0327 22.1186 13.328 21.652 12.824C21.1853 12.3107 20.5273 12.054 19.678 12.054C18.838 12.054 18.1846 12.3107 17.718 12.824C17.2513 13.328 17.018 14.0327 17.018 14.938V17.262C17.018 18.1673 17.2513 18.8767 17.718 19.39C18.1846 19.894 18.838 20.146 19.678 20.146Z" fill="#CA6510"/>
</g>
<defs>
<clipPath id="clip0_311_18833">
<rect width="32" height="32" fill="white"/>
</clipPath>
</defs>
</svg>
