<svg width="128" height="17" viewBox="0 0 128 17" fill="none" xmlns="http://www.w3.org/2000/svg">
<g clip-path="url(#clip0_165_17948)">
<path d="M4.17717 0.883179H0.607422V16.1168H4.17717V0.883179Z" fill="white"/>
<path d="M8.9502 4.00251H13.6628V16.1168H17.2527V4.00251H21.9653V0.883179H8.9502V4.00251Z" fill="white"/>
<path d="M41.5084 12.7823C40.9436 13.0109 40.2848 13.1252 39.5386 13.1252C38.9067 13.1252 38.3218 13.0176 37.784 12.8025C37.2462 12.5874 36.7823 12.2781 36.3991 11.868C36.0092 11.458 35.7134 10.9739 35.4983 10.4025C35.2831 9.83779 35.1756 9.19914 35.1756 8.49998C35.1756 7.7941 35.2764 7.16216 35.4848 6.59746C35.6932 6.03275 35.9957 5.542 36.3857 5.13191C36.7823 4.72183 37.2394 4.41259 37.7705 4.19746C38.3016 3.98233 38.8865 3.87477 39.5319 3.87477C40.2647 3.87477 40.9033 3.99578 41.4546 4.23107C42.0058 4.46637 42.4764 4.8025 42.8663 5.23275L45.2529 2.82603C44.547 2.15376 43.7201 1.62267 42.7588 1.23275C41.7974 0.842837 40.7218 0.654602 39.5319 0.654602C38.3958 0.654602 37.347 0.856283 36.3722 1.25964C35.3974 1.66301 34.5436 2.21427 33.8243 2.91343C33.0983 3.61931 32.5336 4.4462 32.1235 5.40082C31.7134 6.35544 31.5117 7.39074 31.5117 8.5067C31.5117 9.60922 31.7134 10.6445 32.1168 11.6059C32.5201 12.5672 33.0848 13.4008 33.8176 14.1134C34.5504 14.826 35.4042 15.3773 36.3857 15.7672C37.3672 16.1638 38.4294 16.3588 39.5789 16.3588C40.8294 16.3588 41.9184 16.1706 42.8462 15.7874C43.7806 15.4109 44.6075 14.8798 45.3403 14.2075L42.9336 11.821C42.5571 12.2311 42.0798 12.5538 41.5084 12.7823Z" fill="white"/>
<path d="M59.5252 9.32014C60.3117 8.9504 60.9235 8.42603 61.3672 7.76048C61.8042 7.09493 62.026 6.30838 62.026 5.40754C62.026 4.53359 61.8042 3.76048 61.3672 3.08149C60.9302 2.40922 60.3252 1.87141 59.5588 1.48149C58.7924 1.08485 57.8983 0.889893 56.8831 0.889893H54.1537H53.3605H50.584V16.1235H54.1537V9.88485H54.4495L58.8394 16.1235H63.0142L58.221 9.7504C58.6916 9.64956 59.1285 9.50838 59.5252 9.32014ZM54.147 3.6193H56.426C57.0848 3.6193 57.589 3.79409 57.9453 4.13695C58.2949 4.47981 58.4697 4.91678 58.4697 5.44788C58.4697 6.0193 58.2949 6.47645 57.9453 6.80586C57.5958 7.13527 57.0848 7.30334 56.426 7.30334H54.147V3.6193Z" fill="white"/>
<path d="M102.819 10.2143L100.07 0.883179H97.2462L94.4832 10.2075L91.7 0.883179H88.1504L93.0311 16.1168H95.8479L98.6445 6.7252L101.441 16.1168H104.265L109.125 0.883179H105.636L102.819 10.2143Z" fill="white"/>
<path d="M126.947 5.43443C126.543 4.5067 125.979 3.7067 125.246 3.02771C124.513 2.34872 123.659 1.81762 122.685 1.44788C121.71 1.07813 120.641 0.889893 119.478 0.889893H116.896H115.585H113.327V16.1235H115.733H116.896H119.518C120.668 16.1235 121.723 15.942 122.705 15.5722C123.68 15.2092 124.527 14.6848 125.253 13.9991C125.979 13.3201 126.537 12.5134 126.94 11.5924C127.343 10.6647 127.545 9.63611 127.545 8.5067C127.545 7.38401 127.343 6.36216 126.947 5.43443ZM123.343 10.9201C122.98 11.5991 122.463 12.1235 121.797 12.4798C121.132 12.8361 120.352 13.0176 119.464 13.0176H116.903V3.98233H119.464C120.352 3.98233 121.132 4.16384 121.797 4.53359C122.463 4.89662 122.98 5.41426 123.343 6.07309C123.706 6.73191 123.895 7.53863 123.895 8.47981C123.895 9.42098 123.706 10.2412 123.343 10.9201Z" fill="white"/>
<path d="M76.0358 6.46972C79.6594 6.46972 82.7451 4.15712 83.9081 0.936951H79.9148C79.0409 2.13359 77.6291 2.9067 76.0358 2.9067C74.4426 2.9067 73.0308 2.12687 72.1569 0.936951H68.1636C69.3266 4.16384 72.4123 6.46972 76.0358 6.46972Z" fill="white"/>
<path d="M76.0358 7.74701C71.424 7.74701 67.666 11.505 67.666 16.1168H71.229C71.229 13.468 73.387 11.31 76.0358 11.31C78.6845 11.31 80.8425 13.468 80.8425 16.1168H84.4055C84.4055 11.4983 80.6475 7.74701 76.0358 7.74701Z" fill="white"/>
</g>
<defs>
<clipPath id="clip0_165_17948">
<rect width="128" height="16" fill="white" transform="translate(0 0.5)"/>
</clipPath>
</defs>
</svg>
