<svg width="160" height="32" viewBox="0 0 160 32" fill="none" xmlns="http://www.w3.org/2000/svg">
<g clip-path="url(#clip0_244_66384)">
<path d="M20.177 8.38306H16.6073V23.6167H20.177V8.38306Z" fill="#30DF7E"/>
<path d="M24.9501 11.5024H29.6627V23.6167H33.2527V11.5024H37.9653V8.38306H24.9501V11.5024Z" fill="#30DF7E"/>
<path d="M57.5081 20.2823C56.9434 20.5108 56.2846 20.6251 55.5384 20.6251C54.9064 20.6251 54.3216 20.5176 53.7837 20.3024C53.2459 20.0873 52.7821 19.7781 52.3989 19.368C52.009 18.9579 51.7132 18.4739 51.498 17.9024C51.2829 17.3377 51.1753 16.6991 51.1753 15.9999C51.1753 15.294 51.2762 14.6621 51.4846 14.0974C51.693 13.5327 51.9955 13.0419 52.3854 12.6319C52.7821 12.2218 53.2392 11.9125 53.7703 11.6974C54.3014 11.4823 54.8863 11.3747 55.5316 11.3747C56.2644 11.3747 56.9031 11.4957 57.4543 11.731C58.0056 11.9663 58.4762 12.3024 58.8661 12.7327L61.2526 10.326C60.5468 9.6537 59.7199 9.12261 58.7585 8.73269C57.7972 8.34278 56.7216 8.15454 55.5316 8.15454C54.3955 8.15454 53.3468 8.35622 52.372 8.75958C51.3972 9.16294 50.5434 9.71421 49.8241 10.4134C49.098 11.1192 48.5333 11.9461 48.1232 12.9008C47.7132 13.8554 47.5115 14.8907 47.5115 16.0066C47.5115 17.1092 47.7132 18.1445 48.1165 19.1058C48.5199 20.0671 49.0846 20.9008 49.8174 21.6134C50.5501 22.326 51.4039 22.8772 52.3854 23.2671C53.3669 23.6638 54.4291 23.8587 55.5787 23.8587C56.8291 23.8587 57.9182 23.6705 58.8459 23.2873C59.7804 22.9108 60.6073 22.3797 61.34 21.7075L58.9333 19.3209C58.5568 19.731 58.0795 20.0537 57.5081 20.2823Z" fill="#30DF7E"/>
<path d="M75.5249 16.8201C76.3115 16.4504 76.9232 15.926 77.3669 15.2605C77.8039 14.5949 78.0258 13.8084 78.0258 12.9075C78.0258 12.0336 77.8039 11.2605 77.3669 10.5815C76.93 9.90922 76.3249 9.37141 75.5585 8.98149C74.7921 8.58485 73.898 8.38989 72.8829 8.38989H70.1535H69.3602H66.5837V23.6235H70.1535V17.3849H70.4493L74.8392 23.6235H79.014L74.2207 17.2504C74.6913 17.1496 75.1283 17.0084 75.5249 16.8201ZM70.1468 11.1193H72.4258C73.0846 11.1193 73.5888 11.2941 73.9451 11.637C74.2947 11.9798 74.4695 12.4168 74.4695 12.9479C74.4695 13.5193 74.2947 13.9764 73.9451 14.3059C73.5955 14.6353 73.0846 14.8033 72.4258 14.8033H70.1468V11.1193Z" fill="#30DF7E"/>
<path d="M118.819 17.7142L116.069 8.38306H113.246L110.483 17.7074L107.7 8.38306H104.15L109.031 23.6167H111.848L114.644 14.2251L117.441 23.6167H120.264L125.125 8.38306H121.636L118.819 17.7142Z" fill="#30DF7E"/>
<path d="M142.947 12.9344C142.543 12.0067 141.979 11.2067 141.246 10.5277C140.513 9.84872 139.659 9.31762 138.685 8.94788C137.71 8.57813 136.641 8.38989 135.478 8.38989H132.896H131.585H129.327V23.6235H131.733H132.896H135.518C136.668 23.6235 137.723 23.442 138.705 23.0722C139.68 22.7092 140.527 22.1848 141.253 21.4991C141.979 20.8201 142.537 20.0134 142.94 19.0924C143.343 18.1647 143.545 17.1361 143.545 16.0067C143.545 14.884 143.343 13.8622 142.947 12.9344ZM139.343 18.4201C138.98 19.0991 138.463 19.6235 137.797 19.9798C137.132 20.3361 136.352 20.5176 135.464 20.5176H132.903V11.4823H135.464C136.352 11.4823 137.132 11.6638 137.797 12.0336C138.463 12.3966 138.98 12.9143 139.343 13.5731C139.706 14.2319 139.895 15.0386 139.895 15.9798C139.895 16.921 139.706 17.7412 139.343 18.4201Z" fill="#30DF7E"/>
<path d="M92.0358 13.9698C95.6594 13.9698 98.7451 11.6572 99.9081 8.43701H95.9148C95.0409 9.63365 93.6291 10.4068 92.0358 10.4068C90.4426 10.4068 89.0308 9.62693 88.1569 8.43701H84.1636C85.3266 11.6639 88.4123 13.9698 92.0358 13.9698Z" fill="#30DF7E"/>
<path d="M92.0359 15.2471C87.4241 15.2471 83.6661 19.0051 83.6661 23.6168H87.2292C87.2292 20.9681 89.3872 18.8101 92.0359 18.8101C94.6846 18.8101 96.8426 20.9681 96.8426 23.6168H100.406C100.406 18.9983 96.6477 15.2471 92.0359 15.2471Z" fill="#30DF7E"/>
</g>
<defs>
<clipPath id="clip0_244_66384">
<rect width="128" height="16" fill="white" transform="translate(16 8)"/>
</clipPath>
</defs>
</svg>
